<?xml version="1.0" encoding="UTF-8" standalone="no"?>
<!-- Uploaded to: SVG Repo, www.svgrepo.com, Generator: SVG Repo Mixer Tools -->

<svg
   width="800px"
   height="800px"
   viewBox="0 0 512 512"
   version="1.1"
   id="svg1"
   sodipodi:docname="favicon-inverted.svg"
   inkscape:version="1.3.2 (091e20e, 2023-11-25)"
   xmlns:inkscape="http://www.inkscape.org/namespaces/inkscape"
   xmlns:sodipodi="http://sodipodi.sourceforge.net/DTD/sodipodi-0.dtd"
   xmlns="http://www.w3.org/2000/svg"
   xmlns:svg="http://www.w3.org/2000/svg">
  <defs
     id="defs1" />
  <sodipodi:namedview
     id="namedview1"
     pagecolor="#ffffff"
     bordercolor="#000000"
     borderopacity="0.25"
     inkscape:showpageshadow="2"
     inkscape:pageopacity="0.0"
     inkscape:pagecheckerboard="0"
     inkscape:deskcolor="#d1d1d1"
     inkscape:zoom="1.08125"
     inkscape:cx="400"
     inkscape:cy="326.01156"
     inkscape:window-width="1392"
     inkscape:window-height="916"
     inkscape:window-x="3555"
     inkscape:window-y="213"
     inkscape:window-maximized="0"
     inkscape:current-layer="svg1" />
  <path
     fill="#000000"
     d="M19.51 19.51V492.3H492.3V19.51H19.51zm18 18H171.1V171.1H37.51V37.51zm151.59 0h133.6V171.1H189.1V37.51zm151.6 0h133.6V171.1H340.7V37.51zm-84.8 9.94a56.85 56.85 0 0 0-56.8 56.85 56.85 56.85 0 0 0 56.8 56.9 56.85 56.85 0 0 0 56.9-56.9 56.85 56.85 0 0 0-56.9-56.85zM37.51 189.1H171.1v133.6H37.51V189.1zm151.59 0h133.6v133.6H189.1V189.1zm151.6 0h133.6v133.6H340.7V189.1zm66.9 10a56.85 56.85 0 0 0-56.8 56.8 56.85 56.85 0 0 0 56.8 56.9 56.85 56.85 0 0 0 56.8-56.9 56.85 56.85 0 0 0-56.8-56.8zM37.51 340.7H171.1v133.6H37.51V340.7zm151.59 0h133.6v133.6H189.1V340.7zm151.6 0h133.6v133.6H340.7V340.7zm-236.4 10.1a56.85 56.85 0 0 0-56.85 56.8 56.85 56.85 0 0 0 56.85 56.8 56.85 56.85 0 0 0 56.9-56.8 56.85 56.85 0 0 0-56.9-56.8zm151.6 0a56.85 56.85 0 0 0-56.8 56.8 56.85 56.85 0 0 0 56.8 56.8 56.85 56.85 0 0 0 56.9-56.8 56.85 56.85 0 0 0-56.9-56.8zm151.7 0a56.85 56.85 0 0 0-56.8 56.8 56.85 56.85 0 0 0 56.8 56.8 56.85 56.85 0 0 0 56.8-56.8 56.85 56.85 0 0 0-56.8-56.8z"
     id="path1" />
  <path
     style="fill:#ff0000;stroke-width:0.924855"
     d="M 58.728324,399.53757 V 295.49133 H 162.77457 266.82081 V 399.53757 503.58382 H 162.77457 58.728324 Z"
     id="path2"
     transform="scale(0.64)" />
  <path
     style="fill:#ff0000;stroke-width:0.924855"
     d="M 58.728324,162.77457 V 58.728324 H 162.77457 266.82081 V 162.77457 266.82081 H 162.77457 58.728324 Z"
     id="path3"
     transform="scale(0.64)" />
  <path
     style="fill:#ff0000;stroke-width:0.924855"
     d="M 295.49133,399.53757 V 295.49133 H 399.53757 503.58382 V 399.53757 503.58382 H 399.53757 295.49133 Z"
     id="path4"
     transform="scale(0.64)" />
  <path
     style="fill:#ff0000;stroke-width:0.924855"
     d="M 295.49133,162.77457 V 58.728324 H 399.53757 503.58382 V 162.77457 266.82081 H 399.53757 295.49133 Z m 128.98419,86.0579 c 32.80591,-9.75476 56.65915,-35.80112 63.00537,-68.79822 1.7461,-9.07881 1.66617,-26.22183 -0.16365,-35.10214 -3.34994,-16.25761 -11.29666,-31.3367 -22.8646,-43.38613 -12.44987,-12.968089 -26.47626,-21.070377 -44.10582,-25.477566 -10.02661,-2.506538 -29.36764,-2.69811 -39.53065,-0.391548 -28.42374,6.450951 -52.88146,27.051234 -63.56112,53.536334 -8.78935,21.79722 -8.59621,46.87417 0.52985,68.79596 8.96845,21.54319 28.77247,40.56755 50.36238,48.3797 13.2068,4.77877 18.80319,5.63967 34.16486,5.25563 11.67704,-0.29194 15.18506,-0.73703 22.16338,-2.81202 z"
     id="path5"
     transform="scale(0.64)" />
  <path
     style="fill:#ff0000;stroke-width:0.924855"
     d="M 533.17919,162.77457 V 58.728324 H 636.76301 740.34682 V 162.77457 266.82081 H 636.76301 533.17919 Z"
     id="path6"
     transform="scale(0.64)" />
  <path
     style="fill:#ff0000;stroke-width:0.924855"
     d="M 533.17919,399.53757 V 295.49133 H 636.76301 740.34682 V 399.53757 503.58382 H 636.76301 533.17919 Z m 127.56784,86.53121 c 54.50703,-15.9146 80.9734,-76.30228 55.55853,-126.76657 -4.23913,-8.4173 -7.63813,-13.13614 -15.18405,-21.08003 -17.25653,-18.16664 -39.03077,-27.32351 -64.82093,-27.25961 -40.83121,0.10118 -75.20872,26.97047 -86.1102,67.30333 -1.40801,5.2093 -1.73922,9.54536 -1.69549,22.19653 0.0499,14.43495 0.26251,16.4015 2.59609,24.01309 10.04137,32.75273 35.24951,56.06496 68.09977,62.97799 9.33748,1.965 32.75629,1.18463 41.55628,-1.38473 z"
     id="path7"
     transform="scale(0.64)" />
  <path
     style="fill:#ff0000;stroke-width:0.924855"
     d="M 533.17919,636.76301 V 533.17919 H 636.76301 740.34682 V 636.76301 740.34682 H 636.76301 533.17919 Z m 119.76879,87.77104 c 30.33276,-5.09029 57.8858,-28.50144 68.01203,-57.78819 9.24227,-26.7302 5.41179,-56.69273 -10.23223,-80.03778 -5.68684,-8.48627 -18.67438,-20.83656 -27.3778,-26.03445 -8.87813,-5.30224 -22.23327,-10.22488 -31.99956,-11.79489 -11.1023,-1.78478 -28.85272,-0.74936 -39.0231,2.27631 -30.00033,8.92503 -52.24724,31.17194 -61.17227,61.17227 -3.02567,10.17038 -4.06109,27.9208 -2.27631,39.0231 5.43224,33.79145 31.15362,62.38937 64.29044,71.48033 12.14247,3.33124 26.43191,3.9431 39.7788,1.7033 z"
     id="path8"
     transform="scale(0.64)" />
  <path
     style="fill:#ff0000;stroke-width:0.924855"
     d="M 295.49133,636.76301 V 533.17919 H 399.53757 503.58382 V 636.76301 740.34682 H 399.53757 295.49133 Z m 116.22132,88.32489 c 33.55829,-3.16412 64.34733,-29.81255 74.3381,-64.34087 2.55112,-8.81674 3.47806,-28.34132 1.83174,-38.58247 -5.39541,-33.56253 -29.61875,-60.71474 -63.40697,-71.07358 -7.61159,-2.33358 -9.57814,-2.54618 -24.01309,-2.59609 -17.36835,-0.06 -22.55473,0.86914 -35.65666,6.38815 -42.11112,17.73874 -63.78532,65.54352 -49.70315,109.62563 4.06418,12.72228 10.33416,23.23564 19.91307,33.38981 15.65792,16.59821 36.57323,26.51507 58.97275,27.96154 4.71951,0.30477 7.66264,0.17656 17.72421,-0.77212 z"
     id="path9"
     transform="scale(0.64)" />
  <path
     style="fill:#aa0000;stroke-width:0.924855"
     d="M 58.728324,636.76301 V 533.17919 H 162.77457 266.82081 V 636.76301 740.34682 H 162.77457 58.728324 Z m 122.528826,87.26658 c 34.90384,-6.61338 62.07174,-34.28344 69.45946,-70.74334 2.26487,-11.17759 1.42234,-29.78496 -1.84903,-40.83614 -8.90514,-30.08286 -31.21653,-52.39578 -61.31769,-61.32189 -11.59988,-3.43979 -30.33903,-4.10248 -42.81928,-1.51427 -16.49482,3.42078 -31.43417,11.34649 -43.78003,23.22644 -8.169698,7.86138 -13.481088,15.33065 -18.628246,26.19641 -6.12823,12.93682 -8.219148,22.53421 -8.219148,37.72621 0,19.35089 4.335368,33.99065 14.638702,49.4323 8.551499,12.81617 20.302892,23.26494 33.801462,30.05464 18.65948,9.38562 37.24252,11.84789 58.7138,7.77964 z"
     id="path10"
     transform="scale(0.64)" />
  <path
     style="fill:#800000;stroke-width:0.924855"
     d="M 58.728324,636.76301 V 533.17919 H 162.77457 266.82081 V 636.76301 740.34682 H 162.77457 58.728324 Z m 123.468206,87.51244 c 32.28892,-7.02591 56.04406,-29.00257 66.60287,-61.61649 2.13654,-6.59931 2.61853,-9.98565 3.00253,-21.09482 0.50454,-14.59626 -0.52737,-23.43925 -3.88682,-33.30824 -4.80036,-14.10192 -12.04267,-25.4618 -22.84307,-35.83038 -10.81354,-10.3812 -20.98336,-16.38673 -35.93909,-21.22297 -6.89804,-2.23061 -9.73109,-2.59638 -23.12139,-2.98512 -13.25289,-0.38476 -16.31685,-0.19053 -23.29411,1.47668 -15.23154,3.63957 -26.64618,9.48041 -38.7551,19.83087 -8.899879,7.60745 -15.424216,16.1973 -21.21523,27.93167 -5.543848,11.23354 -8.160695,21.03159 -8.892319,33.2948 -2.777786,46.56025 27.728299,85.63437 73.674509,94.36696 8.39881,1.59628 25.35163,1.18406 34.66722,-0.84296 z"
     id="path11"
     transform="scale(0.64)" />
  <path
     style="fill:#ffffff;stroke-width:0.924855"
     d="m 384.42905,250.11669 c -26.22819,-4.65475 -51.00806,-23.15828 -63.00604,-47.04763 -12.84548,-25.57684 -13.01758,-53.69471 -0.48437,-79.13842 16.19461,-32.876749 52.55938,-52.929129 88.36746,-48.727882 39.23361,4.603153 70.28058,33.770842 77.70082,72.997572 1.64127,8.67656 0.6153,29.49942 -1.87705,38.09584 -8.82731,30.44645 -32.38681,53.81723 -62.58755,62.08621 -8.29871,2.27219 -29.61654,3.24224 -38.11327,1.73431 z"
     id="path12"
     transform="scale(0.64)" />
  <path
     style="fill:#ffffff;stroke-width:0.924855"
     d="M 30.982659,400 V 30.982659 H 400 769.01734 V 400 769.01734 H 400 30.982659 Z M 267.74566,636.76301 V 532.25434 H 162.77457 57.803468 V 636.76301 741.27168 H 162.77457 267.74566 Z m 236.76301,0 V 532.25434 h -104.9711 -104.9711 v 104.50867 104.50867 h 104.9711 104.9711 z m 236.76301,0 V 532.25434 H 636.76301 532.25434 V 636.76301 741.27168 H 636.76301 741.27168 Z M 267.74566,400 V 295.49133 H 162.77457 57.803468 V 400 504.50867 H 162.77457 267.74566 Z m 236.76301,0 V 295.49133 H 399.53757 294.56647 V 400 504.50867 h 104.9711 104.9711 z m 236.76301,0 V 295.49133 H 636.76301 532.25434 V 400 504.50867 H 636.76301 741.27168 Z M 267.74566,162.77457 V 57.803468 H 162.77457 57.803468 V 162.77457 267.74566 H 162.77457 267.74566 Z m 236.76301,-0.004 V 57.795565 L 399.76879,58.03073 295.0289,58.265896 294.79374,163.00578 294.55857,267.74566 h 104.97505 104.97505 z m 236.76301,0.004 V 57.803468 H 636.76301 532.25434 V 162.77457 267.74566 h 104.50867 104.50867 z"
     id="path13"
     transform="scale(0.64)" />
  <path
     style="fill:#ffffff;stroke-width:0.924855"
     d="m 619.19075,486.47929 c -33.21775,-7.42231 -58.78131,-31.74591 -67.71854,-64.43385 -1.79094,-6.55035 -2.10504,-9.93618 -2.08806,-22.50787 0.017,-12.5698 0.33539,-15.89701 2.11489,-22.09945 10.29857,-35.89551 39.47333,-60.88499 76.19767,-65.2667 31.7724,-3.79087 64.24508,11.65957 82.65416,39.32671 20.20144,30.3609 19.44239,69.83514 -1.91967,99.83135 -4.52478,6.35362 -15.60295,17.28648 -21.726,21.44103 -6.82555,4.63119 -16.98085,9.37306 -25.6293,11.9672 -6.85903,2.0574 -10.29368,2.4885 -22.00076,2.76142 -9.80827,0.22865 -15.63413,-0.0701 -19.88439,-1.01984 z"
     id="path14"
     transform="scale(0.64)" />
  <path
     style="fill:#ffffff;stroke-width:0.924855"
     d="m 630.75145,725.00151 c -15.19145,-1.95074 -24.64863,-4.77059 -35.33964,-10.53725 -21.49376,-11.59358 -37.00856,-31.07485 -43.91277,-55.13938 -1.7795,-6.20243 -2.09791,-9.52964 -2.11489,-22.09945 -0.0168,-12.4387 0.30571,-15.98683 2.02306,-22.2571 8.58197,-31.3339 32.22722,-54.97915 63.56112,-63.56112 6.27027,-1.71735 9.8184,-2.03986 22.2571,-2.02306 12.56981,0.017 15.89702,0.33539 22.09945,2.11489 33.53324,9.62082 57.61783,35.78617 64.43692,70.00385 1.39547,7.00236 1.4034,23.2026 0.015,30.68716 -5.90832,31.85093 -29.28536,58.57366 -60.02607,68.61694 -9.48879,3.10008 -25.58706,5.14631 -32.99929,4.19452 z"
     id="path15"
     transform="scale(0.64)" />
  <path
     style="fill:#ffffff;stroke-width:0.924855"
     d="m 390.28902,724.60975 c -25.26908,-3.0532 -48.36013,-16.96525 -63.01597,-37.96628 -18.29508,-26.21585 -20.62966,-60.1773 -6.13089,-89.18682 8.83969,-17.68669 24.01239,-32.3204 42.24516,-40.74445 12.98621,-6.00001 19.61271,-7.34683 36.15025,-7.34747 12.53166,-4.8e-4 15.97838,0.32224 22.50787,2.10748 30.88543,8.4444 54.21953,31.59047 63.23851,62.72891 1.8479,6.37995 2.10796,9.28669 2.05992,23.02431 -0.0502,14.36651 -0.27031,16.42422 -2.55179,23.85812 -7.42237,24.18489 -23.70505,43.70039 -45.48572,54.5166 -15.28768,7.59181 -33.32011,10.90625 -49.01734,9.0096 z"
     id="path16"
     transform="scale(0.64)" />
  <path
     style="fill:#f9f9f9;stroke-width:0.924855"
     d="M 153.50019,724.64855 C 88.331484,717.38725 53.06273,642.79632 89.270622,588.80753 101.38196,570.74858 118.07623,558.3644 138.93009,551.96904 c 7.37288,-2.26108 9.5293,-2.49584 23.38205,-2.54554 12.19236,-0.0437 16.56159,0.29669 21.7341,1.69342 16.35607,4.4166 30.09137,12.33764 41.66026,24.02515 29.05399,29.35188 33.78661,75.05029 11.33421,109.4439 -18.22971,27.92511 -51.08114,43.6793 -83.54052,40.06258 z"
     id="path17"
     transform="scale(0.64)" />
  <path
     style="fill:#000000;stroke-width:0.924855"
     d="M 58.728324,636.76301 V 533.17919 H 162.77457 266.82081 V 636.76301 740.34682 H 162.77457 58.728324 Z m 126.360986,87.03333 c 30.87775,-7.92089 53.45284,-29.35662 63.90001,-60.67495 2.32687,-6.97545 2.47106,-8.43088 2.51974,-25.43353 0.0572,-19.97945 -0.59615,-23.80472 -6.32292,-37.0197 -4.10219,-9.4661 -8.84648,-16.50172 -16.74683,-24.83496 -11.62604,-12.26307 -21.92842,-18.9504 -37.45665,-24.31332 l -8.78613,-3.03443 -18.95954,-0.019 c -18.3939,-0.0184 -19.19406,0.0594 -26.82081,2.60841 -29.56206,9.88029 -50.710074,31.54949 -59.774263,61.24737 -2.316871,7.59099 -2.520938,9.52187 -2.534169,23.97834 -0.01599,17.47273 1.161237,23.68812 7.079328,37.37657 11.43622,26.45181 37.262434,46.43475 67.095794,51.91513 7.48589,1.37515 28.42817,0.35329 36.80644,-1.79594 z"
     id="path18"
     transform="scale(0.64)" />
  <path
     style="fill:#000000;stroke-width:0.924855"
     d="M 58.728324,399.53757 V 295.49133 H 162.77457 266.82081 V 399.53757 503.58382 H 162.77457 58.728324 Z"
     id="path19"
     transform="scale(0.64)" />
  <path
     style="fill:#000000;stroke-width:0.924855"
     d="M 58.728324,162.77457 V 58.728324 H 162.77457 266.82081 V 162.77457 266.82081 H 162.77457 58.728324 Z"
     id="path20"
     transform="scale(0.64)" />
  <path
     style="fill:#000000;stroke-width:0.924855"
     d="M 295.49133,399.53757 V 295.49133 H 399.53757 503.58382 V 399.53757 503.58382 H 399.53757 295.49133 Z"
     id="path21"
     transform="scale(0.64)" />
  <path
     style="fill:#000000;stroke-width:0.924855"
     d="M 295.49133,162.77457 V 58.728324 H 399.53757 503.58382 V 162.77457 266.82081 H 399.53757 295.49133 Z m 130.40462,86.02917 c 16.04786,-5.20224 27.61239,-12.3975 38.86797,-24.183 11.5567,-12.1008 19.05117,-26.09149 22.63206,-42.24957 1.28353,-5.79167 1.51999,-10.28483 1.19246,-22.65896 -0.38263,-14.4563 -0.60172,-16.0058 -3.45614,-24.44284 -9.89383,-29.24401 -33.56435,-51.596085 -62.47334,-58.993581 -15.30301,-3.915873 -36.4532,-3.333114 -50.33022,1.386767 -35.72054,12.149338 -59.44541,42.900734 -61.73997,80.025304 -0.91467,14.79888 2.52999,32.53832 8.71009,44.85549 9.2372,18.41008 27.36493,35.47404 45.82045,43.13161 13.07419,5.42476 18.80569,6.36129 36.7304,6.00178 14.63746,-0.29357 16.93662,-0.56827 24.04624,-2.873 z"
     id="path22"
     transform="scale(0.64)" />
  <path
     style="fill:#000000;stroke-width:0.924855"
     d="M 533.17919,162.77457 V 58.728324 H 636.76301 740.34682 V 162.77457 266.82081 H 636.76301 533.17919 Z"
     id="path23"
     transform="scale(0.64)" />
  <path
     style="fill:#000000;stroke-width:0.924855"
     d="M 533.17919,399.53757 V 295.49133 H 636.76301 740.34682 V 399.53757 503.58382 H 636.76301 533.17919 Z m 131.32948,85.69035 c 42.23801,-13.80068 68.1733,-56.78527 60.56979,-100.38704 -3.88031,-22.25131 -15.10896,-41.19647 -32.81172,-55.36042 -26.64019,-21.31479 -65.53893,-24.96123 -96.97789,-9.0909 -19.32289,9.75417 -35.68145,28.99261 -43.50129,51.15959 l -3.34825,9.49131 v 18.49711 c 0,17.92597 0.082,18.73985 2.6554,26.35838 9.117,26.99071 27.88362,47.44142 52.58922,57.30852 12.12872,4.84405 16.92398,5.54926 35.39121,5.20475 15.67859,-0.29248 17.15872,-0.47761 25.43353,-3.1813 z"
     id="path24"
     transform="scale(0.64)" />
  <path
     style="fill:#000000;stroke-width:0.924855"
     d="M 533.17919,636.76301 V 533.17919 H 636.76301 740.34682 V 636.76301 740.34682 H 636.76301 533.17919 Z m 123.83206,87.35819 c 32.5525,-7.4039 58.74906,-33.16007 66.86187,-65.73786 3.04018,-12.20816 2.85516,-31.58747 -0.4194,-43.92682 -4.73467,-17.84141 -11.6882,-29.45871 -25.4992,-42.60168 -9.36469,-8.9117 -15.8571,-13.19745 -26.36918,-17.40668 -12.61769,-5.05237 -19.94394,-6.47128 -33.41313,-6.47128 -17.65652,0 -28.03591,2.25284 -41.64042,9.03804 -9.0361,4.50672 -13.74386,7.86489 -21.60383,15.4106 -10.91392,10.47756 -18.5954,22.65894 -23.0745,36.59182 -2.99131,9.30493 -3.87713,15.95906 -3.8701,29.07159 0.009,17.64876 3.33664,29.90581 12.2557,45.14899 5.50348,9.40577 20.9928,24.733 30.96327,30.63927 8.85562,5.24584 22.94387,10.32614 32.16967,11.60054 8.61005,1.18936 25.42759,0.51117 33.63925,-1.35653 z"
     id="path25"
     transform="scale(0.64)" />
  <path
     style="fill:#000000;stroke-width:0.924855"
     d="M 295.49133,636.76301 V 533.17919 H 399.53757 503.58382 V 636.76301 740.34682 H 399.53757 295.49133 Z m 124.3026,87.44514 c 12.65814,-2.4219 27.19927,-9.66303 37.57344,-18.71066 13.00128,-11.33881 22.17913,-24.76525 27.53648,-40.28364 3.14484,-9.10949 3.29289,-10.1238 3.67994,-25.21385 0.35202,-13.72402 0.15411,-16.76584 -1.55691,-23.9302 -4.08127,-17.08898 -12.24634,-31.22763 -25.15764,-43.56301 -10.75518,-10.27544 -22.82172,-17.38354 -37.36057,-22.00818 -5.82256,-1.85209 -8.33522,-2.0553 -24.9711,-2.01953 -18.49288,0.0398 -18.49917,0.0405 -27.5052,3.11951 -29.39893,10.05107 -50.71913,32.77165 -58.65295,62.50546 -3.37248,12.63915 -3.58283,31.81838 -0.48563,44.27929 8.50971,34.23699 36.08866,60.01541 71.39853,66.73717 8.22916,1.56655 24.76685,1.14154 35.50161,-0.91236 z"
     id="path26"
     transform="scale(0.64)" />
  <path
     style="fill:#ffffff;stroke-width:0.924855"
     d="m 378.72832,248.33121 c -26.02487,-7.02114 -48.38397,-26.37817 -59.48192,-51.49554 -4.94942,-11.20175 -6.46201,-18.97884 -6.53473,-33.59868 -0.0566,-11.37249 0.26397,-14.60504 2.10929,-21.27167 8.76508,-31.66569 31.7267,-54.797245 63.54201,-64.012276 10.20548,-2.955929 32.38234,-2.963012 43.09226,-0.01376 26.89864,7.407228 49.70622,27.620526 59.86395,53.054646 5.01205,12.54976 5.85988,18.03388 5.34218,34.5552 -0.52087,16.6227 -1.59833,21.72675 -7.03616,33.33076 -9.18448,19.59917 -23.82235,34.42873 -42.94992,43.51238 -12.03556,5.71565 -17.84833,6.93374 -35.288,7.39471 -13.72705,0.36283 -16.60291,0.17806 -22.65896,-1.45577 z"
     id="path27"
     transform="scale(0.64)" />
</svg>
